<mxfile host="Electron" modified="2023-11-14T10:16:12.236Z" agent="Mozilla/5.0 (Windows NT 10.0; Win64; x64) AppleWebKit/537.36 (KHTML, like Gecko) draw.io/22.0.3 Chrome/114.0.5735.289 Electron/25.8.4 Safari/537.36" etag="KJ7dTd8Q87sWptMwRbuT" version="22.0.3" type="device" pages="5">
  <diagram name="Página-1" id="hK_96qQkluCStXnYsnqm">
    <mxGraphModel dx="654" dy="621" grid="1" gridSize="10" guides="1" tooltips="1" connect="1" arrows="1" fold="1" page="1" pageScale="1" pageWidth="827" pageHeight="1169" math="0" shadow="0">
      <root>
        <mxCell id="0" />
        <mxCell id="1" parent="0" />
        <mxCell id="-JZSec3RAufjb7yNxsiL-7" value="" style="edgeStyle=orthogonalEdgeStyle;rounded=0;orthogonalLoop=1;jettySize=auto;html=1;" edge="1" parent="1" source="o11BYE3cemGIiHecX9lH-1" target="-JZSec3RAufjb7yNxsiL-6">
          <mxGeometry relative="1" as="geometry" />
        </mxCell>
        <mxCell id="o11BYE3cemGIiHecX9lH-1" value="INICIO" style="ellipse;whiteSpace=wrap;html=1;" parent="1" vertex="1">
          <mxGeometry x="340" width="120" height="80" as="geometry" />
        </mxCell>
        <mxCell id="o11BYE3cemGIiHecX9lH-2" value="fin" style="ellipse;whiteSpace=wrap;html=1;" parent="1" vertex="1">
          <mxGeometry x="340" y="520" width="120" height="80" as="geometry" />
        </mxCell>
        <mxCell id="o11BYE3cemGIiHecX9lH-9" style="edgeStyle=orthogonalEdgeStyle;rounded=0;orthogonalLoop=1;jettySize=auto;html=1;exitX=0;exitY=0.5;exitDx=0;exitDy=0;entryX=0.5;entryY=0;entryDx=0;entryDy=0;" parent="1" source="o11BYE3cemGIiHecX9lH-3" target="o11BYE3cemGIiHecX9lH-7" edge="1">
          <mxGeometry relative="1" as="geometry" />
        </mxCell>
        <mxCell id="o11BYE3cemGIiHecX9lH-11" style="edgeStyle=orthogonalEdgeStyle;rounded=0;orthogonalLoop=1;jettySize=auto;html=1;exitX=1;exitY=0.5;exitDx=0;exitDy=0;entryX=0.5;entryY=0;entryDx=0;entryDy=0;" parent="1" source="o11BYE3cemGIiHecX9lH-3" target="o11BYE3cemGIiHecX9lH-10" edge="1">
          <mxGeometry relative="1" as="geometry" />
        </mxCell>
        <mxCell id="o11BYE3cemGIiHecX9lH-3" value="Usu-1 &amp;amp;&amp;amp; pass-1 ||&lt;br&gt;Usu-2 &amp;amp;&amp;amp; pass-2" style="rhombus;whiteSpace=wrap;html=1;" parent="1" vertex="1">
          <mxGeometry x="310" y="210" width="180" height="90" as="geometry" />
        </mxCell>
        <mxCell id="o11BYE3cemGIiHecX9lH-5" style="edgeStyle=orthogonalEdgeStyle;rounded=0;orthogonalLoop=1;jettySize=auto;html=1;exitX=0.5;exitY=1;exitDx=0;exitDy=0;" parent="1" source="o11BYE3cemGIiHecX9lH-3" target="o11BYE3cemGIiHecX9lH-3" edge="1">
          <mxGeometry relative="1" as="geometry" />
        </mxCell>
        <mxCell id="-JZSec3RAufjb7yNxsiL-2" style="edgeStyle=orthogonalEdgeStyle;rounded=0;orthogonalLoop=1;jettySize=auto;html=1;" edge="1" parent="1" source="o11BYE3cemGIiHecX9lH-7" target="-JZSec3RAufjb7yNxsiL-1">
          <mxGeometry relative="1" as="geometry">
            <Array as="points">
              <mxPoint x="240" y="440" />
            </Array>
          </mxGeometry>
        </mxCell>
        <mxCell id="o11BYE3cemGIiHecX9lH-7" value="Access allowed" style="shape=document;whiteSpace=wrap;html=1;boundedLbl=1;" parent="1" vertex="1">
          <mxGeometry x="180" y="340" width="120" height="80" as="geometry" />
        </mxCell>
        <mxCell id="-JZSec3RAufjb7yNxsiL-3" style="edgeStyle=orthogonalEdgeStyle;rounded=0;orthogonalLoop=1;jettySize=auto;html=1;entryX=1;entryY=0.5;entryDx=0;entryDy=0;" edge="1" parent="1" source="o11BYE3cemGIiHecX9lH-10" target="-JZSec3RAufjb7yNxsiL-1">
          <mxGeometry relative="1" as="geometry">
            <Array as="points">
              <mxPoint x="590" y="440" />
            </Array>
          </mxGeometry>
        </mxCell>
        <mxCell id="o11BYE3cemGIiHecX9lH-10" value="Access denied" style="shape=document;whiteSpace=wrap;html=1;boundedLbl=1;size=0.25;" parent="1" vertex="1">
          <mxGeometry x="530" y="340" width="120" height="80" as="geometry" />
        </mxCell>
        <mxCell id="o11BYE3cemGIiHecX9lH-12" value="Verdadero" style="text;html=1;strokeColor=none;fillColor=none;align=center;verticalAlign=middle;whiteSpace=wrap;rounded=0;" parent="1" vertex="1">
          <mxGeometry x="250" y="210" width="60" height="30" as="geometry" />
        </mxCell>
        <mxCell id="o11BYE3cemGIiHecX9lH-13" value="Falso" style="text;html=1;strokeColor=none;fillColor=none;align=center;verticalAlign=middle;whiteSpace=wrap;rounded=0;" parent="1" vertex="1">
          <mxGeometry x="520" y="210" width="60" height="30" as="geometry" />
        </mxCell>
        <mxCell id="-JZSec3RAufjb7yNxsiL-5" value="" style="edgeStyle=orthogonalEdgeStyle;rounded=0;orthogonalLoop=1;jettySize=auto;html=1;" edge="1" parent="1" source="-JZSec3RAufjb7yNxsiL-1" target="o11BYE3cemGIiHecX9lH-2">
          <mxGeometry relative="1" as="geometry" />
        </mxCell>
        <mxCell id="-JZSec3RAufjb7yNxsiL-1" value="" style="ellipse;whiteSpace=wrap;html=1;aspect=fixed;" vertex="1" parent="1">
          <mxGeometry x="380" y="420" width="40" height="40" as="geometry" />
        </mxCell>
        <mxCell id="-JZSec3RAufjb7yNxsiL-8" value="" style="edgeStyle=orthogonalEdgeStyle;rounded=0;orthogonalLoop=1;jettySize=auto;html=1;" edge="1" parent="1" source="-JZSec3RAufjb7yNxsiL-6" target="o11BYE3cemGIiHecX9lH-3">
          <mxGeometry relative="1" as="geometry" />
        </mxCell>
        <mxCell id="-JZSec3RAufjb7yNxsiL-6" value="Usu-1,pass-1&lt;br&gt;Usu-22,pass-2" style="rounded=0;whiteSpace=wrap;html=1;" vertex="1" parent="1">
          <mxGeometry x="340" y="110" width="120" height="60" as="geometry" />
        </mxCell>
      </root>
    </mxGraphModel>
  </diagram>
  <diagram id="vLM7JWBU60bFNZoABy1E" name="Página-2">
    <mxGraphModel dx="769" dy="731" grid="1" gridSize="10" guides="1" tooltips="1" connect="1" arrows="1" fold="1" page="1" pageScale="1" pageWidth="827" pageHeight="1169" math="0" shadow="0">
      <root>
        <mxCell id="0" />
        <mxCell id="1" parent="0" />
        <mxCell id="W4V6TFKlOtLpspvLTG0X-2" value="" style="edgeStyle=orthogonalEdgeStyle;rounded=0;orthogonalLoop=1;jettySize=auto;html=1;" edge="1" parent="1" source="ne5ysi0FyQZJvJhsaWbw-1" target="W4V6TFKlOtLpspvLTG0X-1">
          <mxGeometry relative="1" as="geometry" />
        </mxCell>
        <mxCell id="ne5ysi0FyQZJvJhsaWbw-1" value="inicio" style="ellipse;whiteSpace=wrap;html=1;" vertex="1" parent="1">
          <mxGeometry x="340" width="120" height="80" as="geometry" />
        </mxCell>
        <mxCell id="W4V6TFKlOtLpspvLTG0X-6" style="edgeStyle=orthogonalEdgeStyle;rounded=0;orthogonalLoop=1;jettySize=auto;html=1;entryX=1;entryY=0.5;entryDx=0;entryDy=0;" edge="1" parent="1" source="ne5ysi0FyQZJvJhsaWbw-2" target="W4V6TFKlOtLpspvLTG0X-4">
          <mxGeometry relative="1" as="geometry">
            <Array as="points">
              <mxPoint x="540" y="250" />
              <mxPoint x="540" y="410" />
            </Array>
          </mxGeometry>
        </mxCell>
        <mxCell id="W4V6TFKlOtLpspvLTG0X-11" value="" style="edgeStyle=orthogonalEdgeStyle;rounded=0;orthogonalLoop=1;jettySize=auto;html=1;" edge="1" parent="1" source="ne5ysi0FyQZJvJhsaWbw-2" target="W4V6TFKlOtLpspvLTG0X-8">
          <mxGeometry relative="1" as="geometry" />
        </mxCell>
        <mxCell id="ne5ysi0FyQZJvJhsaWbw-2" value="m1== 1 &amp;amp;&amp;amp; m2==1 &lt;br&gt;&amp;amp;&amp;amp; m3==0" style="rhombus;whiteSpace=wrap;html=1;" vertex="1" parent="1">
          <mxGeometry x="320" y="190" width="160" height="120" as="geometry" />
        </mxCell>
        <mxCell id="ne5ysi0FyQZJvJhsaWbw-9" value="fin" style="ellipse;whiteSpace=wrap;html=1;" vertex="1" parent="1">
          <mxGeometry x="334" y="460" width="120" height="80" as="geometry" />
        </mxCell>
        <mxCell id="ne5ysi0FyQZJvJhsaWbw-13" value="verdadero" style="text;html=1;strokeColor=none;fillColor=none;align=center;verticalAlign=middle;whiteSpace=wrap;rounded=0;" vertex="1" parent="1">
          <mxGeometry x="250" y="200" width="60" height="30" as="geometry" />
        </mxCell>
        <mxCell id="ne5ysi0FyQZJvJhsaWbw-14" value="falso" style="text;html=1;strokeColor=none;fillColor=none;align=center;verticalAlign=middle;whiteSpace=wrap;rounded=0;" vertex="1" parent="1">
          <mxGeometry x="500" y="210" width="60" height="30" as="geometry" />
        </mxCell>
        <mxCell id="W4V6TFKlOtLpspvLTG0X-3" value="" style="edgeStyle=orthogonalEdgeStyle;rounded=0;orthogonalLoop=1;jettySize=auto;html=1;" edge="1" parent="1" source="W4V6TFKlOtLpspvLTG0X-1" target="ne5ysi0FyQZJvJhsaWbw-2">
          <mxGeometry relative="1" as="geometry" />
        </mxCell>
        <mxCell id="W4V6TFKlOtLpspvLTG0X-1" value="m1,m2,m3" style="rounded=0;whiteSpace=wrap;html=1;" vertex="1" parent="1">
          <mxGeometry x="340" y="100" width="120" height="60" as="geometry" />
        </mxCell>
        <mxCell id="W4V6TFKlOtLpspvLTG0X-7" value="" style="edgeStyle=orthogonalEdgeStyle;rounded=0;orthogonalLoop=1;jettySize=auto;html=1;" edge="1" parent="1" source="W4V6TFKlOtLpspvLTG0X-4" target="ne5ysi0FyQZJvJhsaWbw-9">
          <mxGeometry relative="1" as="geometry" />
        </mxCell>
        <mxCell id="W4V6TFKlOtLpspvLTG0X-4" value="" style="ellipse;whiteSpace=wrap;html=1;aspect=fixed;" vertex="1" parent="1">
          <mxGeometry x="374" y="390" width="40" height="40" as="geometry" />
        </mxCell>
        <mxCell id="W4V6TFKlOtLpspvLTG0X-12" value="" style="edgeStyle=orthogonalEdgeStyle;rounded=0;orthogonalLoop=1;jettySize=auto;html=1;" edge="1" parent="1" source="W4V6TFKlOtLpspvLTG0X-8" target="W4V6TFKlOtLpspvLTG0X-10">
          <mxGeometry relative="1" as="geometry" />
        </mxCell>
        <mxCell id="W4V6TFKlOtLpspvLTG0X-8" value="cont1 = 0" style="shape=parallelogram;perimeter=parallelogramPerimeter;whiteSpace=wrap;html=1;fixedSize=1;" vertex="1" parent="1">
          <mxGeometry x="110" y="220" width="120" height="60" as="geometry" />
        </mxCell>
        <mxCell id="W4V6TFKlOtLpspvLTG0X-13" style="edgeStyle=orthogonalEdgeStyle;rounded=0;orthogonalLoop=1;jettySize=auto;html=1;" edge="1" parent="1" source="W4V6TFKlOtLpspvLTG0X-10" target="W4V6TFKlOtLpspvLTG0X-4">
          <mxGeometry relative="1" as="geometry">
            <Array as="points">
              <mxPoint x="170" y="410" />
            </Array>
          </mxGeometry>
        </mxCell>
        <mxCell id="W4V6TFKlOtLpspvLTG0X-10" value="m3 = 1&lt;br&gt;m1 = 0&lt;br&gt;m2 = 0" style="shape=parallelogram;perimeter=parallelogramPerimeter;whiteSpace=wrap;html=1;fixedSize=1;" vertex="1" parent="1">
          <mxGeometry x="110" y="330" width="120" height="60" as="geometry" />
        </mxCell>
      </root>
    </mxGraphModel>
  </diagram>
  <diagram id="OXbOCwri0WRA8oz6_ZoW" name="Página-3">
    <mxGraphModel dx="654" dy="621" grid="1" gridSize="10" guides="1" tooltips="1" connect="1" arrows="1" fold="1" page="1" pageScale="1" pageWidth="827" pageHeight="1169" math="0" shadow="0">
      <root>
        <mxCell id="0" />
        <mxCell id="1" parent="0" />
        <mxCell id="lRn7cdEr4vBeC52AjXpx-6" value="" style="edgeStyle=orthogonalEdgeStyle;rounded=0;orthogonalLoop=1;jettySize=auto;html=1;" edge="1" parent="1" source="lRn7cdEr4vBeC52AjXpx-1" target="lRn7cdEr4vBeC52AjXpx-2">
          <mxGeometry relative="1" as="geometry" />
        </mxCell>
        <mxCell id="lRn7cdEr4vBeC52AjXpx-1" value="inicio" style="ellipse;whiteSpace=wrap;html=1;" vertex="1" parent="1">
          <mxGeometry x="260" y="10" width="120" height="80" as="geometry" />
        </mxCell>
        <mxCell id="lRn7cdEr4vBeC52AjXpx-7" value="" style="edgeStyle=orthogonalEdgeStyle;rounded=0;orthogonalLoop=1;jettySize=auto;html=1;" edge="1" parent="1" source="lRn7cdEr4vBeC52AjXpx-2" target="lRn7cdEr4vBeC52AjXpx-3">
          <mxGeometry relative="1" as="geometry" />
        </mxCell>
        <mxCell id="lRn7cdEr4vBeC52AjXpx-2" value="nv1,nv2" style="rounded=0;whiteSpace=wrap;html=1;" vertex="1" parent="1">
          <mxGeometry x="260" y="120" width="120" height="60" as="geometry" />
        </mxCell>
        <mxCell id="Snw-ow2vHKbGEEVEHWFc-3" style="edgeStyle=orthogonalEdgeStyle;rounded=0;orthogonalLoop=1;jettySize=auto;html=1;entryX=0.5;entryY=0;entryDx=0;entryDy=0;" edge="1" parent="1" source="lRn7cdEr4vBeC52AjXpx-3" target="Snw-ow2vHKbGEEVEHWFc-1">
          <mxGeometry relative="1" as="geometry" />
        </mxCell>
        <mxCell id="Snw-ow2vHKbGEEVEHWFc-8" style="edgeStyle=orthogonalEdgeStyle;rounded=0;orthogonalLoop=1;jettySize=auto;html=1;entryX=0.5;entryY=0;entryDx=0;entryDy=0;" edge="1" parent="1" source="lRn7cdEr4vBeC52AjXpx-3" target="Snw-ow2vHKbGEEVEHWFc-5">
          <mxGeometry relative="1" as="geometry" />
        </mxCell>
        <mxCell id="lRn7cdEr4vBeC52AjXpx-3" value="nv1 == 1 &amp;amp;&amp;amp; nv2 == 1" style="rhombus;whiteSpace=wrap;html=1;" vertex="1" parent="1">
          <mxGeometry x="255" y="200" width="130" height="110" as="geometry" />
        </mxCell>
        <mxCell id="Snw-ow2vHKbGEEVEHWFc-4" style="edgeStyle=orthogonalEdgeStyle;rounded=0;orthogonalLoop=1;jettySize=auto;html=1;entryX=0.5;entryY=0;entryDx=0;entryDy=0;" edge="1" parent="1" source="Snw-ow2vHKbGEEVEHWFc-1" target="Snw-ow2vHKbGEEVEHWFc-2">
          <mxGeometry relative="1" as="geometry" />
        </mxCell>
        <mxCell id="Snw-ow2vHKbGEEVEHWFc-7" style="edgeStyle=orthogonalEdgeStyle;rounded=0;orthogonalLoop=1;jettySize=auto;html=1;entryX=0.5;entryY=0;entryDx=0;entryDy=0;" edge="1" parent="1" source="Snw-ow2vHKbGEEVEHWFc-1" target="Snw-ow2vHKbGEEVEHWFc-6">
          <mxGeometry relative="1" as="geometry">
            <Array as="points">
              <mxPoint x="380" y="340" />
            </Array>
          </mxGeometry>
        </mxCell>
        <mxCell id="Snw-ow2vHKbGEEVEHWFc-1" value="nv1 == 1 &amp;amp;&amp;amp;&lt;br&gt;nv2 == 0" style="rhombus;whiteSpace=wrap;html=1;" vertex="1" parent="1">
          <mxGeometry x="420" y="280" width="120" height="120" as="geometry" />
        </mxCell>
        <mxCell id="Snw-ow2vHKbGEEVEHWFc-17" style="edgeStyle=orthogonalEdgeStyle;rounded=0;orthogonalLoop=1;jettySize=auto;html=1;entryX=0.5;entryY=0;entryDx=0;entryDy=0;" edge="1" parent="1" source="Snw-ow2vHKbGEEVEHWFc-2" target="Snw-ow2vHKbGEEVEHWFc-16">
          <mxGeometry relative="1" as="geometry">
            <Array as="points">
              <mxPoint x="530" y="450" />
            </Array>
          </mxGeometry>
        </mxCell>
        <mxCell id="Snw-ow2vHKbGEEVEHWFc-26" style="edgeStyle=orthogonalEdgeStyle;rounded=0;orthogonalLoop=1;jettySize=auto;html=1;entryX=1;entryY=0.5;entryDx=0;entryDy=0;" edge="1" parent="1" source="Snw-ow2vHKbGEEVEHWFc-2" target="Snw-ow2vHKbGEEVEHWFc-22">
          <mxGeometry relative="1" as="geometry">
            <Array as="points">
              <mxPoint x="650" y="615" />
            </Array>
          </mxGeometry>
        </mxCell>
        <mxCell id="Snw-ow2vHKbGEEVEHWFc-2" value="nv1== 0 &amp;amp;&amp;amp;&lt;br&gt;nv2 == 2" style="rhombus;whiteSpace=wrap;html=1;" vertex="1" parent="1">
          <mxGeometry x="550" y="400" width="100" height="100" as="geometry" />
        </mxCell>
        <mxCell id="Snw-ow2vHKbGEEVEHWFc-21" style="edgeStyle=orthogonalEdgeStyle;rounded=0;orthogonalLoop=1;jettySize=auto;html=1;entryX=0;entryY=0.5;entryDx=0;entryDy=0;" edge="1" parent="1" source="Snw-ow2vHKbGEEVEHWFc-5" target="Snw-ow2vHKbGEEVEHWFc-20">
          <mxGeometry relative="1" as="geometry" />
        </mxCell>
        <mxCell id="Snw-ow2vHKbGEEVEHWFc-5" value="Tanque lleno" style="shape=document;whiteSpace=wrap;html=1;boundedLbl=1;" vertex="1" parent="1">
          <mxGeometry x="90" y="310" width="120" height="80" as="geometry" />
        </mxCell>
        <mxCell id="Snw-ow2vHKbGEEVEHWFc-33" value="" style="edgeStyle=orthogonalEdgeStyle;rounded=0;orthogonalLoop=1;jettySize=auto;html=1;" edge="1" parent="1" source="Snw-ow2vHKbGEEVEHWFc-6" target="Snw-ow2vHKbGEEVEHWFc-31">
          <mxGeometry relative="1" as="geometry" />
        </mxCell>
        <mxCell id="Snw-ow2vHKbGEEVEHWFc-6" value="Tanque vacío" style="shape=document;whiteSpace=wrap;html=1;boundedLbl=1;" vertex="1" parent="1">
          <mxGeometry x="320" y="410" width="120" height="80" as="geometry" />
        </mxCell>
        <mxCell id="Snw-ow2vHKbGEEVEHWFc-9" value="fin" style="ellipse;whiteSpace=wrap;html=1;" vertex="1" parent="1">
          <mxGeometry x="320" y="680" width="120" height="80" as="geometry" />
        </mxCell>
        <mxCell id="Snw-ow2vHKbGEEVEHWFc-10" value="verdadero" style="text;html=1;strokeColor=none;fillColor=none;align=center;verticalAlign=middle;whiteSpace=wrap;rounded=0;" vertex="1" parent="1">
          <mxGeometry x="170" y="230" width="60" height="30" as="geometry" />
        </mxCell>
        <mxCell id="Snw-ow2vHKbGEEVEHWFc-11" value="verdadero" style="text;html=1;strokeColor=none;fillColor=none;align=center;verticalAlign=middle;whiteSpace=wrap;rounded=0;" vertex="1" parent="1">
          <mxGeometry x="354" y="310" width="60" height="30" as="geometry" />
        </mxCell>
        <mxCell id="Snw-ow2vHKbGEEVEHWFc-12" value="falso" style="text;html=1;strokeColor=none;fillColor=none;align=center;verticalAlign=middle;whiteSpace=wrap;rounded=0;" vertex="1" parent="1">
          <mxGeometry x="420" y="230" width="60" height="30" as="geometry" />
        </mxCell>
        <mxCell id="Snw-ow2vHKbGEEVEHWFc-13" value="falso" style="text;html=1;strokeColor=none;fillColor=none;align=center;verticalAlign=middle;whiteSpace=wrap;rounded=0;" vertex="1" parent="1">
          <mxGeometry x="550" y="310" width="60" height="30" as="geometry" />
        </mxCell>
        <mxCell id="Snw-ow2vHKbGEEVEHWFc-24" style="edgeStyle=orthogonalEdgeStyle;rounded=0;orthogonalLoop=1;jettySize=auto;html=1;entryX=0;entryY=0.5;entryDx=0;entryDy=0;" edge="1" parent="1" source="Snw-ow2vHKbGEEVEHWFc-16" target="Snw-ow2vHKbGEEVEHWFc-22">
          <mxGeometry relative="1" as="geometry" />
        </mxCell>
        <mxCell id="Snw-ow2vHKbGEEVEHWFc-16" value="ERROR, COMPROBAR SENSORES" style="shape=document;whiteSpace=wrap;html=1;boundedLbl=1;" vertex="1" parent="1">
          <mxGeometry x="470" y="510" width="120" height="80" as="geometry" />
        </mxCell>
        <mxCell id="Snw-ow2vHKbGEEVEHWFc-34" style="edgeStyle=orthogonalEdgeStyle;rounded=0;orthogonalLoop=1;jettySize=auto;html=1;entryX=0;entryY=0.5;entryDx=0;entryDy=0;" edge="1" parent="1" source="Snw-ow2vHKbGEEVEHWFc-20" target="Snw-ow2vHKbGEEVEHWFc-25">
          <mxGeometry relative="1" as="geometry" />
        </mxCell>
        <mxCell id="Snw-ow2vHKbGEEVEHWFc-20" value="" style="ellipse;whiteSpace=wrap;html=1;aspect=fixed;" vertex="1" parent="1">
          <mxGeometry x="200" y="620" width="30" height="30" as="geometry" />
        </mxCell>
        <mxCell id="Snw-ow2vHKbGEEVEHWFc-30" style="edgeStyle=orthogonalEdgeStyle;rounded=0;orthogonalLoop=1;jettySize=auto;html=1;entryX=1;entryY=0.5;entryDx=0;entryDy=0;" edge="1" parent="1" source="Snw-ow2vHKbGEEVEHWFc-22" target="Snw-ow2vHKbGEEVEHWFc-25">
          <mxGeometry relative="1" as="geometry">
            <Array as="points">
              <mxPoint x="585" y="635" />
            </Array>
          </mxGeometry>
        </mxCell>
        <mxCell id="Snw-ow2vHKbGEEVEHWFc-22" value="" style="ellipse;whiteSpace=wrap;html=1;aspect=fixed;" vertex="1" parent="1">
          <mxGeometry x="570" y="600" width="30" height="30" as="geometry" />
        </mxCell>
        <mxCell id="Snw-ow2vHKbGEEVEHWFc-28" value="" style="edgeStyle=orthogonalEdgeStyle;rounded=0;orthogonalLoop=1;jettySize=auto;html=1;" edge="1" parent="1" source="Snw-ow2vHKbGEEVEHWFc-25" target="Snw-ow2vHKbGEEVEHWFc-9">
          <mxGeometry relative="1" as="geometry" />
        </mxCell>
        <mxCell id="Snw-ow2vHKbGEEVEHWFc-25" value="" style="ellipse;whiteSpace=wrap;html=1;aspect=fixed;" vertex="1" parent="1">
          <mxGeometry x="365" y="620" width="30" height="30" as="geometry" />
        </mxCell>
        <mxCell id="Snw-ow2vHKbGEEVEHWFc-35" style="edgeStyle=orthogonalEdgeStyle;rounded=0;orthogonalLoop=1;jettySize=auto;html=1;entryX=0.5;entryY=0;entryDx=0;entryDy=0;" edge="1" parent="1" source="Snw-ow2vHKbGEEVEHWFc-31" target="Snw-ow2vHKbGEEVEHWFc-25">
          <mxGeometry relative="1" as="geometry" />
        </mxCell>
        <mxCell id="Snw-ow2vHKbGEEVEHWFc-31" value="" style="ellipse;whiteSpace=wrap;html=1;aspect=fixed;" vertex="1" parent="1">
          <mxGeometry x="362.5" y="532.5" width="35" height="35" as="geometry" />
        </mxCell>
      </root>
    </mxGraphModel>
  </diagram>
  <diagram id="itjZdyuC1GfxlZoGqNNY" name="Página-4">
    <mxGraphModel dx="654" dy="621" grid="1" gridSize="10" guides="1" tooltips="1" connect="1" arrows="1" fold="1" page="1" pageScale="1" pageWidth="827" pageHeight="1169" math="0" shadow="0">
      <root>
        <mxCell id="0" />
        <mxCell id="1" parent="0" />
        <mxCell id="0vzgRbsSGhc1Ss2btHkP-4" value="" style="edgeStyle=orthogonalEdgeStyle;rounded=0;orthogonalLoop=1;jettySize=auto;html=1;" edge="1" parent="1" source="0vzgRbsSGhc1Ss2btHkP-1" target="0vzgRbsSGhc1Ss2btHkP-3">
          <mxGeometry relative="1" as="geometry" />
        </mxCell>
        <mxCell id="0vzgRbsSGhc1Ss2btHkP-1" value="inicio" style="ellipse;whiteSpace=wrap;html=1;" vertex="1" parent="1">
          <mxGeometry x="354" width="120" height="80" as="geometry" />
        </mxCell>
        <mxCell id="0vzgRbsSGhc1Ss2btHkP-2" value="fin" style="ellipse;whiteSpace=wrap;html=1;" vertex="1" parent="1">
          <mxGeometry x="354" y="670" width="120" height="80" as="geometry" />
        </mxCell>
        <mxCell id="0vzgRbsSGhc1Ss2btHkP-10" style="edgeStyle=orthogonalEdgeStyle;rounded=0;orthogonalLoop=1;jettySize=auto;html=1;" edge="1" parent="1" source="0vzgRbsSGhc1Ss2btHkP-3" target="0vzgRbsSGhc1Ss2btHkP-9">
          <mxGeometry relative="1" as="geometry" />
        </mxCell>
        <mxCell id="0vzgRbsSGhc1Ss2btHkP-3" value="temp, ciclo" style="rounded=0;whiteSpace=wrap;html=1;" vertex="1" parent="1">
          <mxGeometry x="354" y="110" width="120" height="60" as="geometry" />
        </mxCell>
        <mxCell id="0vzgRbsSGhc1Ss2btHkP-8" style="edgeStyle=orthogonalEdgeStyle;rounded=0;orthogonalLoop=1;jettySize=auto;html=1;entryX=0.5;entryY=0;entryDx=0;entryDy=0;" edge="1" parent="1" source="0vzgRbsSGhc1Ss2btHkP-5" target="0vzgRbsSGhc1Ss2btHkP-7">
          <mxGeometry relative="1" as="geometry" />
        </mxCell>
        <mxCell id="0vzgRbsSGhc1Ss2btHkP-24" value="" style="edgeStyle=orthogonalEdgeStyle;rounded=0;orthogonalLoop=1;jettySize=auto;html=1;" edge="1" parent="1" source="0vzgRbsSGhc1Ss2btHkP-5" target="0vzgRbsSGhc1Ss2btHkP-23">
          <mxGeometry relative="1" as="geometry" />
        </mxCell>
        <mxCell id="0vzgRbsSGhc1Ss2btHkP-5" value="temp &amp;gt;273,7" style="rhombus;whiteSpace=wrap;html=1;" vertex="1" parent="1">
          <mxGeometry x="200" y="300" width="80" height="80" as="geometry" />
        </mxCell>
        <mxCell id="0vzgRbsSGhc1Ss2btHkP-20" value="" style="edgeStyle=orthogonalEdgeStyle;rounded=0;orthogonalLoop=1;jettySize=auto;html=1;" edge="1" parent="1" source="0vzgRbsSGhc1Ss2btHkP-7" target="0vzgRbsSGhc1Ss2btHkP-19">
          <mxGeometry relative="1" as="geometry" />
        </mxCell>
        <mxCell id="0vzgRbsSGhc1Ss2btHkP-7" value="advertencia" style="shape=document;whiteSpace=wrap;html=1;boundedLbl=1;" vertex="1" parent="1">
          <mxGeometry x="447" y="365" width="120" height="80" as="geometry" />
        </mxCell>
        <mxCell id="0vzgRbsSGhc1Ss2btHkP-17" value="" style="edgeStyle=orthogonalEdgeStyle;rounded=0;orthogonalLoop=1;jettySize=auto;html=1;" edge="1" parent="1" source="0vzgRbsSGhc1Ss2btHkP-9" target="0vzgRbsSGhc1Ss2btHkP-5">
          <mxGeometry relative="1" as="geometry" />
        </mxCell>
        <mxCell id="0vzgRbsSGhc1Ss2btHkP-9" value="temp = temp-ciclo*(-1)" style="shape=parallelogram;perimeter=parallelogramPerimeter;whiteSpace=wrap;html=1;fixedSize=1;" vertex="1" parent="1">
          <mxGeometry x="334" y="190" width="160" height="70" as="geometry" />
        </mxCell>
        <mxCell id="0vzgRbsSGhc1Ss2btHkP-16" style="edgeStyle=orthogonalEdgeStyle;rounded=0;orthogonalLoop=1;jettySize=auto;html=1;entryX=1;entryY=0.5;entryDx=0;entryDy=0;" edge="1" parent="1" source="0vzgRbsSGhc1Ss2btHkP-13" target="0vzgRbsSGhc1Ss2btHkP-9">
          <mxGeometry relative="1" as="geometry">
            <Array as="points">
              <mxPoint x="600" y="550" />
              <mxPoint x="600" y="225" />
            </Array>
          </mxGeometry>
        </mxCell>
        <mxCell id="0vzgRbsSGhc1Ss2btHkP-13" value="ciclo = ciclo + 1" style="shape=parallelogram;perimeter=parallelogramPerimeter;whiteSpace=wrap;html=1;fixedSize=1;" vertex="1" parent="1">
          <mxGeometry x="445" y="520" width="120" height="60" as="geometry" />
        </mxCell>
        <mxCell id="0vzgRbsSGhc1Ss2btHkP-26" value="" style="edgeStyle=orthogonalEdgeStyle;rounded=0;orthogonalLoop=1;jettySize=auto;html=1;" edge="1" parent="1" source="0vzgRbsSGhc1Ss2btHkP-19" target="0vzgRbsSGhc1Ss2btHkP-13">
          <mxGeometry relative="1" as="geometry" />
        </mxCell>
        <mxCell id="0vzgRbsSGhc1Ss2btHkP-19" value="" style="ellipse;whiteSpace=wrap;html=1;" vertex="1" parent="1">
          <mxGeometry x="490" y="460" width="30" height="30" as="geometry" />
        </mxCell>
        <mxCell id="0vzgRbsSGhc1Ss2btHkP-28" style="edgeStyle=orthogonalEdgeStyle;rounded=0;orthogonalLoop=1;jettySize=auto;html=1;entryX=0;entryY=0.5;entryDx=0;entryDy=0;" edge="1" parent="1" source="0vzgRbsSGhc1Ss2btHkP-23" target="0vzgRbsSGhc1Ss2btHkP-2">
          <mxGeometry relative="1" as="geometry">
            <Array as="points">
              <mxPoint x="240" y="710" />
            </Array>
          </mxGeometry>
        </mxCell>
        <mxCell id="0vzgRbsSGhc1Ss2btHkP-23" value="" style="ellipse;whiteSpace=wrap;html=1;" vertex="1" parent="1">
          <mxGeometry x="227" y="535" width="26" height="30" as="geometry" />
        </mxCell>
        <mxCell id="0vzgRbsSGhc1Ss2btHkP-29" value="verdadero" style="text;html=1;strokeColor=none;fillColor=none;align=center;verticalAlign=middle;whiteSpace=wrap;rounded=0;" vertex="1" parent="1">
          <mxGeometry x="320" y="310" width="60" height="30" as="geometry" />
        </mxCell>
        <mxCell id="0vzgRbsSGhc1Ss2btHkP-30" value="falso" style="text;html=1;strokeColor=none;fillColor=none;align=center;verticalAlign=middle;whiteSpace=wrap;rounded=0;" vertex="1" parent="1">
          <mxGeometry x="167" y="445" width="60" height="30" as="geometry" />
        </mxCell>
      </root>
    </mxGraphModel>
  </diagram>
  <diagram id="62cFABbmgngL85tWiEt4" name="Página-5">
    <mxGraphModel dx="1843" dy="899" grid="1" gridSize="10" guides="1" tooltips="1" connect="1" arrows="1" fold="1" page="1" pageScale="1" pageWidth="827" pageHeight="1169" math="0" shadow="0">
      <root>
        <mxCell id="0" />
        <mxCell id="1" parent="0" />
        <mxCell id="Pt6eSOw_evZ4F1b4ApZm-8" value="" style="edgeStyle=orthogonalEdgeStyle;rounded=0;orthogonalLoop=1;jettySize=auto;html=1;" edge="1" parent="1" source="Pt6eSOw_evZ4F1b4ApZm-1" target="Pt6eSOw_evZ4F1b4ApZm-3">
          <mxGeometry relative="1" as="geometry" />
        </mxCell>
        <mxCell id="Pt6eSOw_evZ4F1b4ApZm-1" value="inicio" style="ellipse;whiteSpace=wrap;html=1;" vertex="1" parent="1">
          <mxGeometry x="354" width="120" height="80" as="geometry" />
        </mxCell>
        <mxCell id="Pt6eSOw_evZ4F1b4ApZm-2" value="fin" style="ellipse;whiteSpace=wrap;html=1;" vertex="1" parent="1">
          <mxGeometry x="352" y="970" width="120" height="80" as="geometry" />
        </mxCell>
        <mxCell id="Pt6eSOw_evZ4F1b4ApZm-14" value="" style="edgeStyle=orthogonalEdgeStyle;rounded=0;orthogonalLoop=1;jettySize=auto;html=1;" edge="1" parent="1" source="Pt6eSOw_evZ4F1b4ApZm-3" target="Pt6eSOw_evZ4F1b4ApZm-12">
          <mxGeometry relative="1" as="geometry" />
        </mxCell>
        <mxCell id="Pt6eSOw_evZ4F1b4ApZm-3" value="hum_rel" style="rounded=0;whiteSpace=wrap;html=1;" vertex="1" parent="1">
          <mxGeometry x="354" y="110" width="120" height="60" as="geometry" />
        </mxCell>
        <mxCell id="Pt6eSOw_evZ4F1b4ApZm-6" style="edgeStyle=orthogonalEdgeStyle;rounded=0;orthogonalLoop=1;jettySize=auto;html=1;entryX=0.5;entryY=0;entryDx=0;entryDy=0;" edge="1" parent="1" source="Pt6eSOw_evZ4F1b4ApZm-4" target="Pt6eSOw_evZ4F1b4ApZm-5">
          <mxGeometry relative="1" as="geometry" />
        </mxCell>
        <mxCell id="560AGZm8W8hVDx9xNUrM-11" value="" style="edgeStyle=orthogonalEdgeStyle;rounded=0;orthogonalLoop=1;jettySize=auto;html=1;" edge="1" parent="1" source="Pt6eSOw_evZ4F1b4ApZm-4" target="Mo6_3GKPzYyTQkKd4Zw2-1">
          <mxGeometry relative="1" as="geometry" />
        </mxCell>
        <mxCell id="Pt6eSOw_evZ4F1b4ApZm-4" value="hum_rel&amp;gt;=0 &amp;amp;&amp;amp; hume_rel&amp;lt;=100&amp;nbsp;" style="rhombus;whiteSpace=wrap;html=1;" vertex="1" parent="1">
          <mxGeometry x="344" y="260" width="140" height="130" as="geometry" />
        </mxCell>
        <mxCell id="Pt6eSOw_evZ4F1b4ApZm-13" value="" style="edgeStyle=orthogonalEdgeStyle;rounded=0;orthogonalLoop=1;jettySize=auto;html=1;" edge="1" parent="1" source="Pt6eSOw_evZ4F1b4ApZm-5" target="Pt6eSOw_evZ4F1b4ApZm-12">
          <mxGeometry relative="1" as="geometry">
            <Array as="points">
              <mxPoint x="160" y="410" />
              <mxPoint x="160" y="195" />
            </Array>
          </mxGeometry>
        </mxCell>
        <mxCell id="Pt6eSOw_evZ4F1b4ApZm-5" value="escriba un valor entre el 0% y 100% o valor decimal" style="shape=document;whiteSpace=wrap;html=1;boundedLbl=1;" vertex="1" parent="1">
          <mxGeometry x="220" y="370" width="120" height="80" as="geometry" />
        </mxCell>
        <mxCell id="Pt6eSOw_evZ4F1b4ApZm-10" value="falso" style="text;html=1;strokeColor=none;fillColor=none;align=center;verticalAlign=middle;whiteSpace=wrap;rounded=0;" vertex="1" parent="1">
          <mxGeometry x="280" y="290" width="60" height="30" as="geometry" />
        </mxCell>
        <mxCell id="Pt6eSOw_evZ4F1b4ApZm-11" value="falso" style="text;html=1;strokeColor=none;fillColor=none;align=center;verticalAlign=middle;whiteSpace=wrap;rounded=0;" vertex="1" parent="1">
          <mxGeometry x="297" y="460" width="60" height="30" as="geometry" />
        </mxCell>
        <mxCell id="Pt6eSOw_evZ4F1b4ApZm-15" value="" style="edgeStyle=orthogonalEdgeStyle;rounded=0;orthogonalLoop=1;jettySize=auto;html=1;" edge="1" parent="1" source="Pt6eSOw_evZ4F1b4ApZm-12" target="Pt6eSOw_evZ4F1b4ApZm-4">
          <mxGeometry relative="1" as="geometry" />
        </mxCell>
        <mxCell id="Pt6eSOw_evZ4F1b4ApZm-12" value="" style="ellipse;whiteSpace=wrap;html=1;" vertex="1" parent="1">
          <mxGeometry x="399" y="190" width="30" height="30" as="geometry" />
        </mxCell>
        <mxCell id="Pt6eSOw_evZ4F1b4ApZm-19" style="edgeStyle=orthogonalEdgeStyle;rounded=0;orthogonalLoop=1;jettySize=auto;html=1;entryX=0.5;entryY=0;entryDx=0;entryDy=0;" edge="1" parent="1" source="Pt6eSOw_evZ4F1b4ApZm-16" target="Pt6eSOw_evZ4F1b4ApZm-17">
          <mxGeometry relative="1" as="geometry" />
        </mxCell>
        <mxCell id="Pt6eSOw_evZ4F1b4ApZm-25" style="edgeStyle=orthogonalEdgeStyle;rounded=0;orthogonalLoop=1;jettySize=auto;html=1;entryX=0;entryY=0.5;entryDx=0;entryDy=0;" edge="1" parent="1" source="Pt6eSOw_evZ4F1b4ApZm-16" target="Pt6eSOw_evZ4F1b4ApZm-22">
          <mxGeometry relative="1" as="geometry">
            <Array as="points">
              <mxPoint x="151" y="620" />
              <mxPoint x="151" y="808" />
            </Array>
          </mxGeometry>
        </mxCell>
        <mxCell id="Pt6eSOw_evZ4F1b4ApZm-16" value="hum_rel&amp;gt;90" style="rhombus;whiteSpace=wrap;html=1;" vertex="1" parent="1">
          <mxGeometry x="161" y="580" width="80" height="80" as="geometry" />
        </mxCell>
        <mxCell id="Pt6eSOw_evZ4F1b4ApZm-23" value="" style="edgeStyle=orthogonalEdgeStyle;rounded=0;orthogonalLoop=1;jettySize=auto;html=1;" edge="1" parent="1" source="Pt6eSOw_evZ4F1b4ApZm-17" target="Pt6eSOw_evZ4F1b4ApZm-22">
          <mxGeometry relative="1" as="geometry">
            <Array as="points">
              <mxPoint x="321" y="808" />
            </Array>
          </mxGeometry>
        </mxCell>
        <mxCell id="Pt6eSOw_evZ4F1b4ApZm-17" value="Riesgo de condesanción en los equipos" style="shape=document;whiteSpace=wrap;html=1;boundedLbl=1;" vertex="1" parent="1">
          <mxGeometry x="260" y="702.5" width="120" height="80" as="geometry" />
        </mxCell>
        <mxCell id="Pt6eSOw_evZ4F1b4ApZm-20" value="verdadero" style="text;html=1;strokeColor=none;fillColor=none;align=center;verticalAlign=middle;whiteSpace=wrap;rounded=0;" vertex="1" parent="1">
          <mxGeometry x="251" y="580" width="60" height="30" as="geometry" />
        </mxCell>
        <mxCell id="Pt6eSOw_evZ4F1b4ApZm-21" value="falso" style="text;html=1;strokeColor=none;fillColor=none;align=center;verticalAlign=middle;whiteSpace=wrap;rounded=0;" vertex="1" parent="1">
          <mxGeometry x="80" y="595" width="60" height="30" as="geometry" />
        </mxCell>
        <mxCell id="560AGZm8W8hVDx9xNUrM-15" style="edgeStyle=orthogonalEdgeStyle;rounded=0;orthogonalLoop=1;jettySize=auto;html=1;entryX=0;entryY=0.5;entryDx=0;entryDy=0;exitX=0.5;exitY=1;exitDx=0;exitDy=0;" edge="1" parent="1" source="Pt6eSOw_evZ4F1b4ApZm-22" target="560AGZm8W8hVDx9xNUrM-14">
          <mxGeometry relative="1" as="geometry" />
        </mxCell>
        <mxCell id="Pt6eSOw_evZ4F1b4ApZm-22" value="" style="ellipse;whiteSpace=wrap;html=1;" vertex="1" parent="1">
          <mxGeometry x="171" y="790" width="34" height="35" as="geometry" />
        </mxCell>
        <mxCell id="Mo6_3GKPzYyTQkKd4Zw2-3" style="edgeStyle=orthogonalEdgeStyle;rounded=0;orthogonalLoop=1;jettySize=auto;html=1;entryX=0.5;entryY=0;entryDx=0;entryDy=0;" edge="1" parent="1" source="Mo6_3GKPzYyTQkKd4Zw2-1" target="Mo6_3GKPzYyTQkKd4Zw2-2">
          <mxGeometry relative="1" as="geometry" />
        </mxCell>
        <mxCell id="560AGZm8W8hVDx9xNUrM-13" style="edgeStyle=orthogonalEdgeStyle;rounded=0;orthogonalLoop=1;jettySize=auto;html=1;entryX=0.5;entryY=0;entryDx=0;entryDy=0;" edge="1" parent="1" source="Mo6_3GKPzYyTQkKd4Zw2-1" target="Pt6eSOw_evZ4F1b4ApZm-16">
          <mxGeometry relative="1" as="geometry" />
        </mxCell>
        <mxCell id="Mo6_3GKPzYyTQkKd4Zw2-1" value="hum_rel&amp;gt;=0.00 &amp;amp;&amp;amp; hum_rel &amp;lt;=1.00" style="rhombus;whiteSpace=wrap;html=1;" vertex="1" parent="1">
          <mxGeometry x="357" y="442.5" width="114" height="115" as="geometry" />
        </mxCell>
        <mxCell id="560AGZm8W8hVDx9xNUrM-2" style="edgeStyle=orthogonalEdgeStyle;rounded=0;orthogonalLoop=1;jettySize=auto;html=1;exitX=1;exitY=0.5;exitDx=0;exitDy=0;" edge="1" parent="1" source="Mo6_3GKPzYyTQkKd4Zw2-2" target="560AGZm8W8hVDx9xNUrM-1">
          <mxGeometry relative="1" as="geometry">
            <Array as="points">
              <mxPoint x="593" y="572.5" />
              <mxPoint x="593" y="633.5" />
              <mxPoint x="563" y="633.5" />
            </Array>
          </mxGeometry>
        </mxCell>
        <mxCell id="560AGZm8W8hVDx9xNUrM-7" style="edgeStyle=orthogonalEdgeStyle;rounded=0;orthogonalLoop=1;jettySize=auto;html=1;entryX=0.5;entryY=0;entryDx=0;entryDy=0;" edge="1" parent="1" source="Mo6_3GKPzYyTQkKd4Zw2-2" target="560AGZm8W8hVDx9xNUrM-5">
          <mxGeometry relative="1" as="geometry" />
        </mxCell>
        <mxCell id="Mo6_3GKPzYyTQkKd4Zw2-2" value="hum_rel&amp;gt;0.9" style="rhombus;whiteSpace=wrap;html=1;" vertex="1" parent="1">
          <mxGeometry x="493" y="532.5" width="80" height="80" as="geometry" />
        </mxCell>
        <mxCell id="560AGZm8W8hVDx9xNUrM-8" style="edgeStyle=orthogonalEdgeStyle;rounded=0;orthogonalLoop=1;jettySize=auto;html=1;entryX=1;entryY=0.5;entryDx=0;entryDy=0;exitX=0.46;exitY=0.964;exitDx=0;exitDy=0;exitPerimeter=0;" edge="1" parent="1" source="560AGZm8W8hVDx9xNUrM-1" target="560AGZm8W8hVDx9xNUrM-5">
          <mxGeometry relative="1" as="geometry">
            <Array as="points">
              <mxPoint x="558" y="750.5" />
              <mxPoint x="483" y="750.5" />
            </Array>
          </mxGeometry>
        </mxCell>
        <mxCell id="560AGZm8W8hVDx9xNUrM-1" value="Riesgo de condesanción en los equipos" style="shape=document;whiteSpace=wrap;html=1;boundedLbl=1;" vertex="1" parent="1">
          <mxGeometry x="503" y="655" width="120" height="80" as="geometry" />
        </mxCell>
        <mxCell id="560AGZm8W8hVDx9xNUrM-16" style="edgeStyle=orthogonalEdgeStyle;rounded=0;orthogonalLoop=1;jettySize=auto;html=1;entryX=1;entryY=0.5;entryDx=0;entryDy=0;exitX=0.5;exitY=1;exitDx=0;exitDy=0;" edge="1" parent="1" source="560AGZm8W8hVDx9xNUrM-5" target="560AGZm8W8hVDx9xNUrM-14">
          <mxGeometry relative="1" as="geometry" />
        </mxCell>
        <mxCell id="560AGZm8W8hVDx9xNUrM-5" value="" style="ellipse;whiteSpace=wrap;html=1;" vertex="1" parent="1">
          <mxGeometry x="433" y="735" width="33" height="30" as="geometry" />
        </mxCell>
        <mxCell id="560AGZm8W8hVDx9xNUrM-9" value="falso" style="text;html=1;strokeColor=none;fillColor=none;align=center;verticalAlign=middle;whiteSpace=wrap;rounded=0;" vertex="1" parent="1">
          <mxGeometry x="433" y="532.5" width="60" height="30" as="geometry" />
        </mxCell>
        <mxCell id="560AGZm8W8hVDx9xNUrM-10" value="verdadero" style="text;html=1;strokeColor=none;fillColor=none;align=center;verticalAlign=middle;whiteSpace=wrap;rounded=0;" vertex="1" parent="1">
          <mxGeometry x="563" y="527.5" width="60" height="30" as="geometry" />
        </mxCell>
        <mxCell id="560AGZm8W8hVDx9xNUrM-12" value="verdadero" style="text;html=1;strokeColor=none;fillColor=none;align=center;verticalAlign=middle;whiteSpace=wrap;rounded=0;" vertex="1" parent="1">
          <mxGeometry x="503" y="460" width="60" height="30" as="geometry" />
        </mxCell>
        <mxCell id="560AGZm8W8hVDx9xNUrM-17" value="" style="edgeStyle=orthogonalEdgeStyle;rounded=0;orthogonalLoop=1;jettySize=auto;html=1;" edge="1" parent="1" source="560AGZm8W8hVDx9xNUrM-14" target="Pt6eSOw_evZ4F1b4ApZm-2">
          <mxGeometry relative="1" as="geometry" />
        </mxCell>
        <mxCell id="560AGZm8W8hVDx9xNUrM-14" value="" style="ellipse;whiteSpace=wrap;html=1;aspect=fixed;" vertex="1" parent="1">
          <mxGeometry x="395" y="896" width="34" height="34" as="geometry" />
        </mxCell>
      </root>
    </mxGraphModel>
  </diagram>
</mxfile>
